<?xml version="1.0" standalone="no"?><!DOCTYPE svg PUBLIC "-//W3C//DTD SVG 1.1//EN" "http://www.w3.org/Graphics/SVG/1.1/DTD/svg11.dtd"><svg t="1722933786121" class="icon" viewBox="0 0 1024 1024" version="1.1" xmlns="http://www.w3.org/2000/svg" p-id="9539" xmlns:xlink="http://www.w3.org/1999/xlink" width="200" height="200"><path d="M460.427 86.283l-357.504 619.2L423.755 890.73a157.536 157.536 0 0 0 215.2-57.664l278.72-482.752-457.28-264z m39.392-68.224l457.28 264a78.784 78.784 0 0 1 28.832 107.616L707.21 872.427a236.32 236.32 0 0 1-322.816 86.496L63.563 773.675A78.784 78.784 0 0 1 34.73 666.059l357.504-619.2A78.784 78.784 0 0 1 499.85 18.027zM219.37 502.603l457.504 264.704-39.168 68.608-458.848-264.576 40.544-68.736z" fill="currentColor" p-id="9540"></path></svg>