<?xml version="1.0" standalone="no"?><!DOCTYPE svg PUBLIC "-//W3C//DTD SVG 1.1//EN" "http://www.w3.org/Graphics/SVG/1.1/DTD/svg11.dtd"><svg t="1725242942343" class="icon" viewBox="0 0 1024 1024" version="1.1" xmlns="http://www.w3.org/2000/svg" p-id="10677" id="mx_n_1725242942344" width="32" height="32" xmlns:xlink="http://www.w3.org/1999/xlink"><path d="M796.416 303.616l-37.845333 80.213333 29.610666-159.829333a85.333333 85.333333 0 0 0-167.808-31.146667L597.333333 317.312V128a85.333333 85.333333 0 1 0-170.666666 0v208l-22.186667-140.970667a85.418667 85.418667 0 0 0-168.618667 26.581334l56.618667 359.424-30.250667-15.104A106.666667 106.666667 0 0 0 214.528 554.666667H213.333333a128 128 0 0 0-128 127.317333A42.922667 42.922667 0 0 0 128 725.333333h47.957333a21.333333 21.333333 0 0 1 14.037334 5.290667l144.085333 125.994667c4.565333 4.053333 7.253333 9.941333 7.253333 16.085333V917.333333a21.333333 21.333333 0 0 0 21.333334 21.333334h341.333333a21.333333 21.333333 0 0 0 21.333333-21.333334v-44.757333c0-10.624 1.578667-21.162667 4.693334-31.36a5238.016 5238.016 0 0 1 176.896-421.930667l24.576-51.968a74.666667 74.666667 0 0 0-135.082667-63.701333zM384 896v-23.296c0-18.432-7.978667-36.010667-21.845333-48.213333l-144.042667-125.952A63.914667 63.914667 0 0 0 175.957333 682.666667H128c0.085333 0 0-0.128 0-0.469334A85.333333 85.333333 0 0 1 213.333333 597.333333h1.194667a64 64 0 0 1 28.629333 6.741334l67.285334 33.706666a21.333333 21.333333 0 0 0 30.634666-22.442666L278.016 214.954667a42.666667 42.666667 0 1 1 84.309333-13.269334l40.106667 254.805334c2.176 13.994667 5.674667 27.733333 10.368 41.173333l10.24 29.141333c7.338667 20.821333 37.546667 18.176 41.173333-3.626666l1.92-11.648c2.133333-12.714667 3.2-25.642667 3.2-38.528V128a42.666667 42.666667 0 1 1 85.333334 0v345.002667c0 11.008 0.981333 22.314667 2.858666 34.986666 3.328 22.058667 34.048 24.832 41.301334 3.712l6.954666-20.266666c3.84-11.093333 6.826667-22.357333 8.874667-33.706667l47.658667-257.066667a42.666667 42.666667 0 0 1 83.925333 15.573334l-50.56 272.64-9.130667 49.28c-4.565333 24.576 29.610667 35.584 40.277334 12.970666l108.16-229.333333a32 32 0 0 1 57.898666 27.306667L868.352 401.066667a5274.88 5274.88 0 0 0-178.688 426.496c-4.778667 15.36-6.997333 30.165333-6.997333 45.013333V896H384z" fill="currentColor" p-id="10678"></path></svg>