<?xml version="1.0" standalone="no"?><!DOCTYPE svg PUBLIC "-//W3C//DTD SVG 1.1//EN" "http://www.w3.org/Graphics/SVG/1.1/DTD/svg11.dtd"><svg t="1722933713804" class="icon" viewBox="0 0 1024 1024" version="1.1" xmlns="http://www.w3.org/2000/svg" p-id="5475" xmlns:xlink="http://www.w3.org/1999/xlink" width="32" height="32"><path d="M1018.155086 291.894882l-286.039065-286.039065c-9.343708-9.343708-21.631324-7.231774-27.359145 4.671854l-38.366802 79.901504 267.191654 267.191654 79.901504-38.366802c11.903628-5.695822 14.015562-18.015437 4.671854-27.359145z" fill="currentColor" p-id="5476"></path><path d="M615.383667 135.387771l-263.383773 21.951314c-17.503453 2.175932-32.062998 5.887816-37.086842 28.767101 0 0.031999 0 0.031999-0.031999 0.063998-71.421769 343.061284-314.870165 677.834827-314.870165 677.834827l57.374208 57.374208 271.991504-271.991504c-5.983813-12.543608-9.375707-26.55917-9.375707-41.374708 0-53.022344 42.974658-95.997001 95.997001-95.997001s95.997001 42.974658 95.997001 95.997001-42.974658 95.997001-95.997001 95.997001c-14.815537 0-28.863098-3.359895-41.374708-9.375707l-271.991504 271.991504 57.374208 57.374208c0 0 334.773543-243.448396 677.834827-314.870165 0.031999 0 0.031999 0 0.063998-0.031999 22.847286-5.023843 26.591169-19.583388 28.735102-37.086842l21.951314-263.383773-273.207466-273.239465z" fill="currentColor" p-id="5477"></path></svg>