<?xml version="1.0" standalone="no"?><!DOCTYPE svg PUBLIC "-//W3C//DTD SVG 1.1//EN" "http://www.w3.org/Graphics/SVG/1.1/DTD/svg11.dtd"><svg t="1722933687681" class="icon" viewBox="0 0 1027 1024" version="1.1" xmlns="http://www.w3.org/2000/svg" p-id="4464" xmlns:xlink="http://www.w3.org/1999/xlink" width="200.5859375" height="200"><path d="M0 1007.328a16 16 0 0 0 16 16h995.552a15.68 15.68 0 0 0 11.36-4.736l0.096-0.064c0.096-0.096 0.096-0.288 0.224-0.384a16.096 16.096 0 0 0 3.424-6.24c0.224-0.736 0.32-1.44 0.448-2.208 0.128-0.8 0.48-1.504 0.48-2.336 0-1.28-0.448-2.4-0.736-3.584-0.096-0.448 0.096-0.896-0.064-1.344l-101.12-310.88a15.616 15.616 0 0 0-3.904-6.368L374.016 137.408c-0.576-0.896-0.992-1.856-1.76-2.656L252.608 15.104a49.92 49.92 0 0 0-70.496 0L14.592 182.624C5.184 192.032 0 204.544 0 217.856s5.184 25.856 14.592 35.264l116.992 116.992c0.576 0.864 0.96 1.856 1.728 2.624l546.88 550.56a15.68 15.68 0 0 0 6.784 4.064l214.816 64H16a15.968 15.968 0 0 0-16 15.968z m203.584-682.176l501.984 495.552-18.464 64.064L167.264 361.472l36.32-36.32zM730.112 800L226.176 302.56l77.984-77.984 499.424 500.736V800h-73.472z m93.408-100L326.784 201.952l33.248-33.248 518.752 518.752-55.264 12.544zM735.616 832h83.968a16 16 0 0 0 16-16v-85.92l64.224-14.592 87.136 267.84-271.616-80.928 20.288-70.4zM32 217.856c0-4.768 1.856-9.216 5.216-12.608l167.52-167.52a17.888 17.888 0 0 1 25.248 0l107.904 107.904-192.736 192.736-107.904-107.904A17.6 17.6 0 0 1 32 217.856z" fill="currentColor" p-id="4465"></path></svg>